<svg width="24" height="24" viewBox="0 0 24 24" fill="none" xmlns="http://www.w3.org/2000/svg">
<g clip-path="url(#clip0_70_1877)">
<path fill-rule="evenodd" clip-rule="evenodd" d="M12 5.32601C10.705 5.32656 9.46323 5.84123 8.54753 6.75692C7.63184 7.67261 7.11715 8.9144 7.11659 10.2094C7.11659 11.8603 7.8464 13.5437 8.73897 14.964C9.57152 16.2679 10.5545 17.4694 11.6677 18.5438C11.7581 18.6275 11.8768 18.674 12 18.674C12.1232 18.674 12.2419 18.6275 12.3324 18.5438C13.4455 17.4694 14.4285 16.2679 15.261 14.964C16.1536 13.5437 16.8834 11.8603 16.8834 10.2094C16.8828 8.91443 16.3682 7.67264 15.4525 6.75694C14.5368 5.84124 13.295 5.32656 12 5.32601ZM12 6.30269C13.036 6.30295 14.0296 6.71463 14.7622 7.44722C15.4948 8.17981 15.9065 9.17334 15.9067 10.2094C15.9067 11.6839 15.2298 13.1774 14.4349 14.4444C13.7308 15.5444 12.9148 16.5686 12 17.5006C11.0852 16.5686 10.2692 15.5444 9.56507 14.4444C8.77018 13.1775 8.09328 11.6839 8.09328 10.2094C8.09355 9.17337 8.50523 8.17983 9.23783 7.44724C9.97043 6.71465 10.964 6.30295 12 6.30269ZM12 7.44215C11.5412 7.44215 11.0928 7.57819 10.7113 7.83307C10.3298 8.08795 10.0325 8.45022 9.85697 8.87408C9.6814 9.29793 9.63547 9.76432 9.72497 10.2143C9.81447 10.6642 10.0354 11.0776 10.3598 11.402C10.6842 11.7264 11.0975 11.9473 11.5475 12.0368C11.9974 12.1263 12.4638 12.0804 12.8877 11.9048C13.3115 11.7292 13.6738 11.4319 13.9287 11.0505C14.1836 10.669 14.3196 10.2205 14.3196 9.76175C14.3194 9.14662 14.075 8.55673 13.64 8.12176C13.205 7.6868 12.6151 7.44234 12 7.44215ZM12 8.41883C12.2656 8.41883 12.5252 8.49759 12.7461 8.64516C12.9669 8.79272 13.1391 9.00246 13.2407 9.24785C13.3423 9.49324 13.3689 9.76325 13.3171 10.0238C13.2653 10.2843 13.1374 10.5235 12.9496 10.7113C12.7618 10.8992 12.5225 11.0271 12.262 11.0789C12.0015 11.1307 11.7315 11.1041 11.4861 11.0024C11.2407 10.9008 11.0309 10.7287 10.8834 10.5078C10.7358 10.287 10.6571 10.0274 10.6571 9.76175C10.6574 9.4057 10.799 9.06433 11.0508 8.81256C11.3026 8.56079 11.644 8.41918 12 8.41883ZM12 23.5C9.72552 23.5 7.50211 22.8255 5.61095 21.5619C3.71978 20.2983 2.2458 18.5022 1.37539 16.4009C0.504983 14.2995 0.277244 11.9872 0.720974 9.75647C1.1647 7.52569 2.25997 5.47658 3.86828 3.86828C5.47658 2.25997 7.52569 1.1647 9.75647 0.720974C11.9872 0.277244 14.2995 0.504983 16.4009 1.37539C18.5022 2.2458 20.2983 3.71978 21.5619 5.61095C22.8255 7.50211 23.5 9.72552 23.5 12C23.4965 15.0489 22.2838 17.972 20.1279 20.1279C17.972 22.2838 15.0489 23.4965 12 23.5ZM12 1.50001C9.9233 1.50001 7.89323 2.11582 6.16652 3.26957C4.4398 4.42333 3.09399 6.06321 2.29927 7.98183C1.50455 9.90045 1.29662 12.0117 1.70176 14.0485C2.1069 16.0853 3.10693 17.9562 4.57538 19.4246C6.04384 20.8931 7.91476 21.8931 9.95156 22.2983C11.9884 22.7034 14.0996 22.4955 16.0182 21.7007C17.9368 20.906 19.5767 19.5602 20.7304 17.8335C21.8842 16.1068 22.5 14.0767 22.5 12C22.4969 9.21619 21.3896 6.54729 19.4212 4.57883C17.4527 2.61038 14.7838 1.50313 12 1.50001Z" fill="#1D1B1B"/>
</g>
<defs>
<clipPath id="clip0_70_1877">
<rect width="24" height="24" rx="12" fill="white"/>
</clipPath>
</defs>
</svg>
