<svg width="24" height="24" viewBox="0 0 24 24" fill="none" xmlns="http://www.w3.org/2000/svg">
<g clip-path="url(#clip0_70_1871)">
<path d="M12 0C5.38317 0 0 5.38317 0 12C0 18.6168 5.38317 24 12 24C18.6168 24 24 18.6168 24 12C24 5.38317 18.6168 0 12 0ZM12 22.875C6.00352 22.875 1.125 17.9965 1.125 12C1.125 6.00352 6.00352 1.125 12 1.125C17.9965 1.125 22.875 6.00352 22.875 12C22.875 17.9965 17.9965 22.875 12 22.875ZM18.2759 14.1827C18.2759 14.1827 18.2759 14.1827 18.2759 14.1827L16.0714 12.91C15.7339 12.7151 15.34 12.6635 14.9624 12.7646C14.5848 12.8658 14.2695 13.1074 14.0746 13.445C13.9616 13.6409 13.7635 13.8873 13.4623 13.9489C13.1875 14.0051 12.9449 13.9506 12.7207 13.7823C11.8922 13.1606 10.8396 12.108 10.2177 11.2794C10.0494 11.0551 9.99492 10.8125 10.0511 10.5378C10.1127 10.2365 10.3591 10.0385 10.555 9.92541C11.253 9.52233 11.493 8.62659 11.0901 7.92858L9.81731 5.72405C9.45277 5.09273 8.69564 4.82794 8.01722 5.09433L7.99083 5.10469C6.93736 5.51827 6.16702 5.83566 5.84845 6.15422C5.26978 6.73294 4.68366 7.8098 5.17777 9.65381C6.13744 13.2355 10.7645 17.8626 14.3462 18.8223C14.8325 18.9526 15.2655 19.0078 15.65 19.0078C16.7236 19.0078 17.4198 18.5777 17.8459 18.1516C18.1644 17.8331 18.4817 17.0629 18.8952 16.0097L18.9058 15.9829C19.1721 15.3044 18.9072 14.5473 18.2759 14.1827ZM17.8584 15.5717L17.8479 15.5985C17.6484 16.1067 17.2333 17.164 17.0502 17.3561C16.5133 17.8931 15.7014 18.0207 14.6372 17.7356C11.428 16.8757 7.12416 12.5718 6.26428 9.36263C5.97914 8.29852 6.10683 7.48664 6.64327 6.95025C6.83597 6.76659 7.89356 6.35142 8.40178 6.15192L8.42822 6.14152C8.47036 6.12492 8.5133 6.11705 8.5553 6.11705C8.6715 6.11705 8.7802 6.17808 8.84287 6.28659L10.1156 8.49108C10.2084 8.65191 10.1532 8.85825 9.99239 8.95106C9.43289 9.27408 9.0623 9.75755 8.94881 10.3124C8.82788 10.9039 8.95547 11.4717 9.31781 11.9546C10.0064 12.8721 11.1279 13.9937 12.0453 14.6821C12.5281 15.0444 13.096 15.172 13.6875 15.0511C14.2424 14.9376 14.7259 14.567 15.0489 14.0075C15.0935 13.9302 15.1662 13.8747 15.2535 13.8513C15.3408 13.8279 15.4315 13.8396 15.5089 13.8842L17.7134 15.157C17.8612 15.2424 17.9208 15.4129 17.8584 15.5717Z" fill="#1D1B1B"/>
</g>
<defs>
<clipPath id="clip0_70_1871">
<rect width="24" height="24" rx="12" fill="white"/>
</clipPath>
</defs>
</svg>
