<svg width="24" height="24" viewBox="0 0 24 24" fill="none" xmlns="http://www.w3.org/2000/svg">
<g clip-path="url(#clip0_70_1888)">
<path d="M20.4853 3.51469C18.2188 1.24823 15.2053 0 12 0C8.79469 0 5.78123 1.24823 3.51469 3.51469C1.24823 5.78123 0 8.79469 0 12C0 15.2053 1.24823 18.2188 3.51469 20.4853C5.78123 22.7518 8.79469 24 12 24C15.2053 24 18.2188 22.7518 20.4853 20.4853C22.7518 18.2188 24 15.2053 24 12C24 8.79469 22.7518 5.78123 20.4853 3.51469ZM19.9881 19.9881C18.3901 21.5861 16.3977 22.6463 14.2304 23.078V15.3576H15.84C16.1743 15.3576 16.4645 15.1311 16.5456 14.8067L17.1092 12.5521C17.1639 12.3333 17.1157 12.1059 16.9769 11.9281C16.8381 11.7504 16.6291 11.6484 16.4036 11.6484H13.8788C13.6847 11.6484 13.5273 11.8058 13.5273 12C13.5273 12.1942 13.6847 12.3516 13.8788 12.3516H16.4036C16.4071 12.3516 16.4154 12.3516 16.4227 12.3609C16.43 12.3702 16.428 12.3782 16.4271 12.3817L15.8635 14.6362C15.8608 14.647 15.8511 14.6545 15.84 14.6545H13.8788C13.6847 14.6545 13.5273 14.8119 13.5273 15.0061V23.1944C13.0251 23.2618 12.5153 23.2969 12 23.2969C8.98247 23.2969 6.14559 22.1218 4.01189 19.9881C1.87819 17.8544 0.703125 15.0175 0.703125 12C0.703125 8.98247 1.87819 6.14559 4.01189 4.01189C6.14559 1.87819 8.98247 0.703125 12 0.703125C15.0175 0.703125 17.8544 1.87819 19.9881 4.01189C22.1218 6.14559 23.2969 8.98247 23.2969 12C23.2969 15.0175 22.1218 17.8544 19.9881 19.9881Z" fill="#1D1B1B"/>
<path d="M16.5091 4.50903H14.2546C11.7816 4.50903 9.76972 6.52096 9.76972 8.99394V11.6484H7.49098C7.08992 11.6484 6.76367 11.9747 6.76367 12.3757V14.6303C6.76367 15.0313 7.08992 15.3576 7.49098 15.3576H9.76972V21.7697C9.76972 21.9638 9.92713 22.1212 10.1213 22.1212C10.3154 22.1212 10.4728 21.9638 10.4728 21.7697V15.006C10.4728 14.8119 10.3154 14.6545 10.1213 14.6545H7.49098C7.47763 14.6545 7.4668 14.6436 7.4668 14.6303V12.3757C7.4668 12.3624 7.47763 12.3515 7.49098 12.3515H10.1213C10.3154 12.3515 10.4728 12.1941 10.4728 12V8.99394C10.4728 6.90866 12.1693 5.21216 14.2546 5.21216H16.5091C16.5225 5.21216 16.5333 5.22299 16.5333 5.23635V7.49089C16.5333 7.50425 16.5225 7.51508 16.5091 7.51508H15.0061C14.1907 7.51508 13.5273 8.17845 13.5273 8.99389V10.4969C13.5273 10.691 13.6847 10.8485 13.8789 10.8485C14.073 10.8485 14.2304 10.691 14.2304 10.4969V8.99389C14.2304 8.56616 14.5784 8.21821 15.0061 8.21821H16.5091C16.9102 8.21821 17.2364 7.89195 17.2364 7.49089V5.23635C17.2364 4.83533 16.9102 4.50903 16.5091 4.50903Z" fill="#1D1B1B"/>
</g>
<defs>
<clipPath id="clip0_70_1888">
<rect width="24" height="24" rx="12" fill="white"/>
</clipPath>
</defs>
</svg>
